<svg width="27" height="23" viewBox="0 0 27 23" fill="none" xmlns="http://www.w3.org/2000/svg">
<path d="M18.8438 0H2.34375C1.04932 0 0 1.04932 0 2.34375V15C0 16.2944 1.04932 17.3438 2.34375 17.3438H18.8438C20.1382 17.3438 21.1875 16.2944 21.1875 15V2.34375C21.1875 1.04932 20.1382 0 18.8438 0ZM10 14.2188H3.125V9.84375H10V14.2188ZM10 7.84375H3.125V3.59375H10V7.84375ZM18.0625 14.2188H11.5V9.84375H18.0625V14.2188ZM18.0625 7.84375H11.5V3.59375H18.0625V7.84375Z" fill="#309C46" fill-opacity="0.7"/>
<path d="M7.34375 22.3438C6.04932 22.3438 5 21.2944 5 20V19.2188H23.0625V5H23.8438C25.1382 5 26.1875 6.04932 26.1875 7.34375V20C26.1875 21.2944 25.1382 22.3438 23.8438 22.3438H7.34375Z" fill="#C6B9CF" fill-opacity="0.75"/>
</svg>
